<svg width="194" height="42" viewBox="0 0 194 42" fill="none" xmlns="http://www.w3.org/2000/svg">
<path d="M18.9059 28.6126L14.8236 15.1685H11.5034L7.47688 28.4654L4.86549 17.5382C4.52942 16.1322 3.3003 15.1685 1.84283 15.1685H0L5.37078 34.6377H6.70467C8.09129 34.6377 9.26757 33.7757 9.67435 32.4613L13.1388 21.2673L16.6645 32.475C17.076 33.7826 18.2485 34.6377 19.6301 34.6377H20.9748L26.3331 15.1685H24.5003C23.0357 15.1685 21.8016 16.1423 21.4731 17.5573L18.9059 28.6126ZM101.248 10.4394H99.9435V15.1685H99.8164C98.1056 15.1685 96.7101 16.552 96.7101 18.2483V18.4052H99.9435V29.4357C99.9435 33.1452 101.635 34.9999 105.023 34.9999C105.958 34.9999 106.925 34.8588 107.928 34.5823V31.1982C107.408 31.3212 106.894 31.3825 106.386 31.3825C105.624 31.3825 105.091 31.2168 104.8 30.8851C104.503 30.5534 104.354 30.019 104.354 29.276V18.4052H104.711C106.421 18.4052 107.817 17.0217 107.817 15.3254V15.1685H104.354V13.5192C104.354 11.8229 102.959 10.4394 101.248 10.4394ZM37.9295 34.9999C39.5586 34.9999 41.033 34.6745 42.3462 34.0357C43.6594 33.391 44.7064 32.488 45.4931 31.3272L45.1819 31.0323C44.1448 30.0499 42.6206 29.8919 41.401 30.6402C40.4617 31.2166 39.3888 31.5054 38.1833 31.5054C36.7401 31.5054 35.5443 31.0385 34.5965 30.105C33.6488 29.1654 33.1038 27.894 32.9736 26.2911H45.8028V24.5284C45.8028 21.433 45.0779 19.0379 43.6161 17.3488C42.1603 15.6538 40.0913 14.8061 37.4214 14.8061C35.7364 14.8061 34.2125 15.2361 32.8436 16.0836C31.4807 16.9373 30.4152 18.1287 29.6595 19.6581C28.9038 21.1874 28.5259 22.9254 28.5259 24.8662V25.4066C28.5259 28.3118 29.3931 30.6332 31.1337 32.3774C32.8683 34.1278 35.1356 34.9999 37.9295 34.9999ZM37.403 18.3192C38.6233 18.3192 39.5773 18.6939 40.271 19.4432C40.9585 20.1926 41.3489 21.2979 41.448 22.7597V23.0851H33.048C33.2524 21.5865 33.7294 20.4198 34.4728 19.5783C35.2161 18.7369 36.1886 18.3192 37.403 18.3192ZM66.4554 25.0996V24.8478C66.4554 21.685 65.774 19.216 64.4051 17.4532C63.0422 15.6905 61.1592 14.8062 58.762 14.8062C56.6124 14.8062 54.8964 15.5556 53.6265 17.0418V10.0799C53.6265 8.38352 52.2312 7.00005 50.5202 7.00005H49.216V31.5578C49.216 33.2542 50.6114 34.6377 52.3223 34.6377H53.2116L53.4282 32.531C54.7106 34.1771 56.5008 34.9999 58.799 34.9999C61.184 34.9999 63.0546 34.1033 64.4173 32.3161C65.7803 30.5289 66.4554 28.1214 66.4554 25.0996ZM62.0511 24.7249V25.2838C62.0264 27.3414 61.6362 28.883 60.8866 29.9025C60.1369 30.9282 59.0716 31.4378 57.6901 31.4378C55.7699 31.4378 54.4133 30.5904 53.6265 28.8951V20.8742C54.4009 19.216 55.7451 18.3867 57.6592 18.3867C59.0839 18.3867 60.1742 18.9149 60.9238 19.9714C61.6732 21.0278 62.0511 22.6122 62.0511 24.7249ZM81.1616 29.3496C81.1616 30.0559 80.858 30.6271 80.2509 31.0631C79.6439 31.5054 78.7642 31.7203 77.5997 31.7203C76.4042 31.7203 75.4437 31.444 74.7191 30.8851C74.4071 30.6465 74.157 30.3654 73.9682 30.0412C73.3979 29.0623 72.4187 28.502 71.2785 28.502H69.2553C69.2553 29.6629 69.6022 30.7499 70.3086 31.7572C71.0085 32.7645 71.9872 33.5567 73.2446 34.134C74.5023 34.7113 75.9392 34.9999 77.5501 34.9999C79.9165 34.9999 81.8367 34.4534 83.2988 33.3664C84.7668 32.2854 85.4979 30.8666 85.4979 29.1163C85.4979 28.0722 85.2562 27.1817 84.7792 26.4508C84.3022 25.7198 83.5711 25.0934 82.5864 24.5714C81.5952 24.0493 80.2387 23.6009 78.5103 23.2202C76.7819 22.8456 75.6296 22.471 75.0598 22.0963C74.4898 21.7216 74.2111 21.2058 74.2111 20.5302C74.2111 19.7871 74.5145 19.1914 75.1216 18.7492C75.7349 18.307 76.528 18.0858 77.4945 18.0858C78.535 18.0858 79.3713 18.3621 79.997 18.9211C80.2166 19.1155 80.3975 19.3269 80.5399 19.5551C81.1223 20.4893 82.0741 21.0153 83.1818 21.0153H85.349C85.349 19.179 84.6304 17.6865 83.181 16.5381C81.7377 15.3834 79.8422 14.8061 77.4945 14.8061C75.2889 14.8061 73.474 15.3713 72.0492 16.5012C70.6183 17.6253 69.9059 19.0317 69.9059 20.7084C69.9059 22.7166 71.0085 24.2459 73.2076 25.2962C74.2173 25.7813 75.4685 26.1744 76.9677 26.4876C78.467 26.8008 79.5385 27.1571 80.1891 27.5685C80.8333 27.9739 81.1616 28.5697 81.1616 29.3496ZM94.0277 34.6377V18.2483C94.0277 16.552 92.6323 15.1685 90.9214 15.1685H89.6172V31.5579C89.6172 33.2542 91.0126 34.6377 92.7235 34.6377H94.0277ZM89.3446 10.1138C89.3446 10.771 89.5615 11.3238 89.9889 11.76C90.4224 12.196 91.0358 12.417 91.8349 12.417C92.6278 12.417 93.2471 12.196 93.6809 11.76C94.1206 11.3238 94.3374 10.771 94.3374 10.1138C94.3374 9.43835 94.1206 8.88553 93.6809 8.43719C93.2471 7.995 92.6278 7.774 91.8349 7.774C91.0358 7.774 90.4224 7.995 89.9889 8.43719C89.5615 8.88553 89.3446 9.43835 89.3446 10.1138ZM119.834 34.9999C121.464 34.9999 122.938 34.6745 124.251 34.0357C125.564 33.391 126.611 32.488 127.398 31.3272L127.087 31.0323C126.05 30.0498 124.526 29.8919 123.306 30.6402C122.367 31.2166 121.294 31.5054 120.088 31.5054C118.645 31.5054 117.449 31.0385 116.502 30.105C115.554 29.1654 115.009 27.894 114.879 26.2911H127.708V24.5284C127.708 21.433 126.983 19.0379 125.521 17.3488C124.065 15.6538 121.996 14.8061 119.326 14.8061C117.642 14.8061 116.118 15.2361 114.749 16.0836C113.386 16.9373 112.32 18.1287 111.564 19.6581C110.809 21.1874 110.431 22.9254 110.431 24.8662V25.4066C110.431 28.3118 111.298 30.6332 113.039 32.3774C114.773 34.1278 117.041 34.9999 119.834 34.9999ZM119.308 18.3192C120.528 18.3192 121.482 18.6939 122.176 19.4432C122.864 20.1926 123.254 21.2979 123.353 22.7597V23.0851H114.953C115.157 21.5865 115.635 20.4198 116.378 19.5783C117.121 18.7369 118.094 18.3192 119.308 18.3192Z" fill="#334155"/>
<path fillRule="evenodd" clipRule="evenodd" d="M154.73 0H172.898C188.268 0.0196439 194 5.77983 194 21C194 36.2462 188.242 41.98 172.898 41.9996L154.73 42V41.9996C139.386 41.98 133.628 36.2462 133.628 21C133.628 5.75389 139.385 0.0200414 154.73 0.000446837V0ZM153.476 27.6053C151.879 27.6053 150.74 27.0101 150.066 25.8075C149.379 24.6233 149.032 23.1323 149.032 21.3161V20.6842C149.032 18.9047 149.379 17.4137 150.066 16.2111C150.759 15.0023 151.879 14.4133 153.457 14.4133C154.528 14.4133 155.4 14.7876 156.069 15.5239C156.387 15.8775 156.628 16.2701 156.793 16.699C157.159 17.6467 158.031 18.2421 159.054 18.2421H161.057L161.088 18.1317C161.143 16.0271 160.457 14.3029 159.021 12.9407C157.591 11.5908 155.741 10.9036 153.457 10.9036C150.647 10.9036 148.469 11.8424 146.928 13.6954C145.387 15.5423 144.626 17.8801 144.626 20.6842V21.3161C144.626 24.1387 145.387 26.458 146.928 28.3049C148.469 30.158 150.647 31.0968 153.476 31.0968C155.598 31.0968 157.412 30.428 158.916 29.1149C160.419 27.8018 161.144 26.2249 161.088 24.4086L161.057 24.2982H158.964C158.001 24.2982 157.178 24.8182 156.771 25.6829C156.599 26.0476 156.356 26.3816 156.032 26.6728C155.33 27.3026 154.472 27.6054 153.476 27.6054L153.476 27.6053ZM182.46 14.4568C182.093 13.5553 181.534 12.8623 180.782 12.3593C179.995 11.8396 179.121 11.4582 178.107 11.2327C177.11 11.0075 175.957 10.9035 174.646 10.9035C169.121 10.9035 166.236 12.897 165.974 16.8834H168.072C169.033 16.8834 169.995 16.3981 170.414 15.5316C170.607 15.1502 170.887 14.8206 171.237 14.5783C171.971 14.0754 173.02 13.8156 174.401 13.8156C175.834 13.8156 176.866 14.0753 177.495 14.6301C177.985 15.0115 178.317 15.5316 178.474 16.2075C178.544 16.4674 178.579 16.8141 178.596 17.2648C178.614 17.698 178.631 18.2181 178.631 18.79H176.971C173.055 18.79 170.117 19.3448 168.177 20.4539C166.371 21.4918 165.324 23.083 165.324 25.1066C165.324 29.1413 168.095 31.0967 171.988 31.0967C174.698 31.0967 176.918 30.3338 178.666 28.7912V30.6459H180.38C181.831 30.6459 183.002 29.4846 183.002 28.0459V18.1488C183.002 16.5714 182.81 15.3408 182.442 14.4396L182.46 14.4568ZM178.649 25.5674C178.369 25.9488 178.037 26.2951 177.67 26.6071C177.285 26.9191 176.883 27.1794 176.429 27.387C175.974 27.595 175.502 27.7684 174.995 27.8899C174.488 28.0111 173.981 28.0633 173.457 28.0633C172.32 28.0633 171.411 27.8206 170.747 27.3523C170.065 26.8844 169.733 26.1739 169.733 25.2552C169.733 23.9899 170.31 23.0538 171.446 22.4472C172.583 21.8407 174.296 21.5457 176.551 21.5457H178.649V25.5845V25.5674Z" fill="#A271F2"/>
</svg>